<svg xmlns="http://www.w3.org/2000/svg" width="24" height="24" viewBox="0 0 24 24">
  <g id="Group_38" data-name="Group 38" transform="translate(0.43 0.175)">
    <rect id="Rectangle_29" data-name="Rectangle 29" width="24" height="24" transform="translate(-0.43 -0.175)" fill="none"/>
    <path id="ic_add_shopping_cart_24px" d="M9.011,7.408h1.6v-2.4h2.4V3.4h-2.4V1h-1.6V3.4h-2.4v1.6h2.4Zm-3.2,7.21a1.6,1.6,0,1,0,1.6,1.6A1.6,1.6,0,0,0,5.806,14.618Zm8.011,0a1.6,1.6,0,1,0,1.6,1.6A1.6,1.6,0,0,0,13.817,14.618Zm-7.874-2.6.024-.1.721-1.306h5.968a1.6,1.6,0,0,0,1.4-.825l3.092-5.615L15.756,3.4h-.008l-.881,1.6L12.655,9.011H7.032l-.1-.216L5.133,5.005,4.372,3.4,3.619,1.8H1V3.4H2.6l2.884,6.08L4.4,11.446a1.549,1.549,0,0,0-.2.769,1.607,1.607,0,0,0,1.6,1.6h9.613v-1.6H6.143A.2.2,0,0,1,5.943,12.015Z" transform="translate(3.005 2.204)" fill="#ae0028"/>
  </g>
</svg>
