<svg xmlns="http://www.w3.org/2000/svg" width="36" height="36" viewBox="0 0 36 36">
  <g id="Group_320" data-name="Group 320" transform="translate(0)">
    <g id="money" transform="translate(5.566 6.671)">
      <path id="Path_495" data-name="Path 495" d="M29,40.826a.826.826,0,0,0,.826.826V40A.826.826,0,0,0,29,40.826Z" transform="translate(-18.265 -24.896)"/>
      <path id="Path_496" data-name="Path 496" d="M3,33v9.908H26.944V33Zm6.193,7.432H8.366v-.826h.825Zm0-4.128H8.366v-.826h.825ZM4.65,34.651v6.606H9.191v.826H4.237a.413.413,0,0,1-.413-.413V34.238a.412.412,0,0,1,.412-.413H9.191v.826ZM6.714,36.3v-.826H7.54V36.3Zm.825,3.3v.826H6.714v-.826Zm7.431,2.89a4.541,4.541,0,1,1,4.541-4.541A4.546,4.546,0,0,1,14.971,42.495Zm11.147-.825a.413.413,0,0,1-.413.413H20.751v-.826h4.541V34.651H20.751v-.826h4.954a.412.412,0,0,1,.412.413Zm-4.541-2.064v.826h-.825v-.826Zm-.825-3.3v-.826h.825V36.3Zm2.477,3.3v.826H22.4v-.826ZM22.4,36.3v-.826h.825V36.3Z" transform="translate(-2.998 -20.785)"/>
      <path id="Path_497" data-name="Path 497" d="M26.715,36a3.715,3.715,0,1,0,3.715,3.716A3.719,3.719,0,0,0,26.715,36Zm.413,3.3a1.651,1.651,0,0,1,0,3.3h0v.413H26.3v-.413a1.653,1.653,0,0,1-1.651-1.651h.826a.826.826,0,0,0,.826.826V40.128a1.651,1.651,0,1,1,0-3.3v-.413h.825v.413h0a1.653,1.653,0,0,1,1.651,1.651h-.826a.826.826,0,0,0-.825-.826h0V39.3Z" transform="translate(-14.742 -22.547)"/>
      <path id="Path_498" data-name="Path 498" d="M33,47.65h0A.826.826,0,0,0,33,46h0Z" transform="translate(-20.613 -28.418)"/>
      <path id="Path_499" data-name="Path 499" d="M27.2,29.926h.973l-.754-.754A.828.828,0,0,0,27.2,29.926Z" transform="translate(-17.198 -18.538)"/>
      <path id="Path_500" data-name="Path 500" d="M19.05,12a4.539,4.539,0,0,1,7.732,2.8h3.152l4.128-4.128L26.8,3.414,15.414,14.8H17.74A4.5,4.5,0,0,1,19.05,12Zm5.82-1.734-.583-.584.584-.584.583.584ZM26.039,9.1l-.584-.584.584-.584.584.584Zm1.168,3.5.584-.584.584.584-.584.584Zm-.584-7.591a.413.413,0,0,1,.584,0l5.255,5.255a.414.414,0,0,1,0,.584l-3.5,3.5-.584-.584,3.211-3.211L26.915,5.891,23.7,9.1l-.584-.584Zm1.752,6.423.584-.584.584.584-.584.584Z" transform="translate(-10.288 -3.414)"/>
      <path id="Path_501" data-name="Path 501" d="M26.75,26.134a1.69,1.69,0,0,1,2.335,0,1.655,1.655,0,0,1,.148.171H30.44a3.714,3.714,0,0,0-7.382,0h.883a1.638,1.638,0,0,1,.472-1.338l-.292-.292.584-.584.292.292a1.654,1.654,0,0,1,2.335,0l-.583.585a.828.828,0,0,0-1.168,0Z" transform="translate(-14.776 -14.916)"/>
    </g>
    <rect id="Rectangle_43" data-name="Rectangle 43" width="36" height="36" transform="translate(0)" fill="none"/>
  </g>
</svg>
