<svg xmlns="http://www.w3.org/2000/svg" width="20" height="20" viewBox="0 0 20 20">
  <g id="Group_355" data-name="Group 355" transform="translate(-461 -719)">
    <rect id="Rectangle_72" data-name="Rectangle 72" width="20" height="20" rx="10" transform="translate(461 719)" fill="#4cdf60"/>
    <path id="Path_515" data-name="Path 515" d="M-17.194-18.869a1.38,1.38,0,0,1-.176.677l-4.551,8.128a1.52,1.52,0,0,1-.581.594,1.584,1.584,0,0,1-.806.215,1.532,1.532,0,0,1-.556-.1,1.611,1.611,0,0,1-.484-.294l-3.45-3.038a1.348,1.348,0,0,1-.347-.47,1.387,1.387,0,0,1-.121-.57,1.367,1.367,0,0,1,.107-.539,1.374,1.374,0,0,1,.294-.44,1.374,1.374,0,0,1,.44-.294,1.367,1.367,0,0,1,.539-.107,1.356,1.356,0,0,1,.49.091,1.457,1.457,0,0,1,.429.256l2.344,2.069,3.835-6.851a1.32,1.32,0,0,1,.506-.517,1.376,1.376,0,0,1,.7-.187,1.367,1.367,0,0,1,.539.107,1.407,1.407,0,0,1,.443.294,1.352,1.352,0,0,1,.3.44A1.367,1.367,0,0,1-17.194-18.869Z" transform="translate(493.266 744.25)" fill="#fff"/>
  </g>
</svg>
