<svg xmlns="http://www.w3.org/2000/svg" width="33.714" height="33.714" viewBox="0 0 33.714 33.714">
  <g id="Group_338" data-name="Group 338" transform="translate(0 0.01)">
    <rect id="Rectangle_49" data-name="Rectangle 49" width="33.714" height="33.714" transform="translate(0 -0.01)" fill="none"/>
    <g id="cvv_1_" data-name="cvv (1)" transform="translate(1.405 5.623)">
      <path id="Path_507" data-name="Path 507" d="M16,90.35a1.223,1.223,0,0,0,1.223,1.223H31.679a6.361,6.361,0,1,1,10.724,0h1.733A1.223,1.223,0,0,0,45.36,90.35V79.34H16Zm1.957-4.159h8.808v3.425H17.957ZM44.137,72H17.223A1.223,1.223,0,0,0,16,73.223v2.2H45.36v-2.2A1.223,1.223,0,0,0,44.137,72Z" transform="translate(-15.511 -71.511)" fill="#ae0028"/>
      <g id="Group_337" data-name="Group 337">
        <path id="Path_508" data-name="Path 508" d="M36.626,64H9.713A1.715,1.715,0,0,0,8,65.713V82.839a1.715,1.715,0,0,0,1.713,1.713h14.2a6.845,6.845,0,0,0,11.238,0h1.477a1.715,1.715,0,0,0,1.713-1.713V65.713A1.715,1.715,0,0,0,36.626,64Zm-7.1,22.509A5.872,5.872,0,1,1,35.4,80.637,5.872,5.872,0,0,1,29.531,86.509Zm7.829-3.67a.735.735,0,0,1-.734.734h-.906a6.851,6.851,0,1,0-12.378,0H9.713a.735.735,0,0,1-.734-.734V72.319H37.36Zm0-11.5H8.979V68.4H37.36Zm0-3.915H8.979V65.713a.735.735,0,0,1,.734-.734H36.626a.735.735,0,0,1,.734.734Z" transform="translate(-8 -64)" fill="#ed492d"/>
        <path id="Path_509" data-name="Path 509" d="M49.3,296H40.489a.489.489,0,0,0-.489.489v3.425a.489.489,0,0,0,.489.489H49.3a.489.489,0,0,0,.489-.489v-3.425A.489.489,0,0,0,49.3,296Zm-.489,3.425H40.979v-2.447h7.829Z" transform="translate(-38.043 -281.809)" fill="#f5a395"/>
        <path id="Path_510" data-name="Path 510" d="M289.957,304.979a.489.489,0,0,0,0-.979h-1.468a.489.489,0,0,0-.489.489v3.425a.489.489,0,0,0,.489.489h1.468a.489.489,0,1,0,0-.979h-.979v-2.447Z" transform="translate(-270.873 -289.32)" fill="#ed492d"/>
        <path id="Path_511" data-name="Path 511" d="M338.579,304.016a.489.489,0,0,0-.6.336l-.508,1.779-.508-1.779a.489.489,0,1,0-.941.269l.979,3.425a.489.489,0,0,0,.941,0l.979-3.425A.489.489,0,0,0,338.579,304.016Z" transform="translate(-315.935 -289.318)" fill="#ed492d"/>
        <path id="Path_512" data-name="Path 512" d="M394.579,304.016a.489.489,0,0,0-.6.336l-.508,1.779-.508-1.779a.489.489,0,1,0-.941.269l.979,3.425a.489.489,0,0,0,.941,0l.979-3.425A.489.489,0,0,0,394.579,304.016Z" transform="translate(-368.51 -289.318)" fill="#ed492d"/>
        <path id="Path_513" data-name="Path 513" d="M40.489,272.979h4.4a.489.489,0,1,0,0-.979h-4.4a.489.489,0,1,0,0,.979Z" transform="translate(-38.043 -259.277)" fill="#f5a395"/>
        <path id="Path_514" data-name="Path 514" d="M40.489,248.979h1.468a.489.489,0,0,0,0-.979H40.489a.489.489,0,0,0,0,.979Z" transform="translate(-38.043 -236.745)" fill="#f5a395"/>
      </g>
    </g>
  </g>
</svg>
