<svg xmlns="http://www.w3.org/2000/svg" width="22.04" height="16.254" viewBox="0 0 22.04 16.254">
  <path id="credit-card" d="M22.04,67.408v1.653a.367.367,0,0,1-.367.367H.367A.367.367,0,0,1,0,69.061V67.408a.367.367,0,0,1,.367-.367H21.673A.367.367,0,0,1,22.04,67.408Zm0-1.469v-1.1A1.837,1.837,0,0,0,20.2,63H1.837A1.837,1.837,0,0,0,0,64.837v1.1a.367.367,0,0,0,.367.367H21.673A.367.367,0,0,0,22.04,65.939ZM17.7,73.212a.37.37,0,0,0-.279.5,1.928,1.928,0,0,1,0,1.356.367.367,0,0,0,.268.495,1.194,1.194,0,1,0,.011-2.348ZM.367,70.163H21.673a.367.367,0,0,1,.367.367v6.887A1.837,1.837,0,0,1,20.2,79.254H1.837A1.837,1.837,0,0,1,0,77.418V70.53A.367.367,0,0,1,.367,70.163ZM6.8,75.535a.367.367,0,0,0-.367-.367H3.352a.367.367,0,1,0,0,.735H6.428A.367.367,0,0,0,6.8,75.535Zm0-2.3a.367.367,0,0,0-.367-.367H3.352a.367.367,0,1,0,0,.735H6.428A.367.367,0,0,0,6.8,73.239Zm13.04,1.148a1.93,1.93,0,0,0-3.076-1.549,1.928,1.928,0,1,0,0,3.1A1.93,1.93,0,0,0,19.836,74.387Z" transform="translate(0 -63)"/>
</svg>
