<svg xmlns="http://www.w3.org/2000/svg" width="143.543" height="51" viewBox="0 0 143.543 51">
  <g id="Group_202" data-name="Group 202" transform="translate(-302.457 -390)">
    <g id="google_1_" data-name="google (1)" transform="translate(302.457 392)">
      <path id="Path_252" data-name="Path 252" d="M10.8,114.237a12.166,12.166,0,0,1,1.722-6.254v-7.769H4.755a23.055,23.055,0,0,0,0,28.045h7.769v-7.769A12.166,12.166,0,0,1,10.8,114.237Z" transform="translate(0 -91.195)" fill="#fbbd00"/>
      <path id="Path_253" data-name="Path 253" d="M201.4,374.675l-5.4,5.4,5.4,5.4a22.868,22.868,0,0,0,14.022-4.755v-7.76h-7.76A12.24,12.24,0,0,1,201.4,374.675Z" transform="translate(-178.358 -339.391)" fill="#0f9d58"/>
      <path id="Path_254" data-name="Path 254" d="M60.592,325.477l-7.769,7.769a23.409,23.409,0,0,0,1.994,2.271,22.892,22.892,0,0,0,16.294,6.749v-10.8A12.247,12.247,0,0,1,60.592,325.477Z" transform="translate(-48.068 -296.181)" fill="#31aa52"/>
      <path id="Path_255" data-name="Path 255" d="M279.043,202.605a23.245,23.245,0,0,0-.377-4.174l-.2-1.107H256v10.8h10.932a12.186,12.186,0,0,1-4.67,5.008l7.76,7.76a23.411,23.411,0,0,0,2.271-1.994A22.892,22.892,0,0,0,279.043,202.605Z" transform="translate(-232.957 -179.563)" fill="#3c79e6"/>
      <path id="Path_256" data-name="Path 256" d="M210.057,14.387l.955.955L218.649,7.7l-.955-.955A22.892,22.892,0,0,0,201.4,0L196,5.4l5.4,5.4A12.162,12.162,0,0,1,210.057,14.387Z" transform="translate(-178.358)" fill="#cf2d48"/>
      <path id="Path_257" data-name="Path 257" d="M71.11,10.8V0A22.893,22.893,0,0,0,54.816,6.749,23.39,23.39,0,0,0,52.822,9.02l7.769,7.769A12.247,12.247,0,0,1,71.11,10.8Z" transform="translate(-48.067 0)" fill="#eb4132"/>
    </g>
    <text id="google" transform="translate(365 424)" fill="#ae0028" font-size="30" font-family="Dubai-Regular, Dubai"><tspan x="0" y="0">google</tspan></text>
  </g>
</svg>
