<svg xmlns="http://www.w3.org/2000/svg" width="26.54" height="24.351" viewBox="0 0 26.54 24.351">
  <path id="ic_favorite_border_24px" d="M21.242,3A7.947,7.947,0,0,0,15.27,5.773,7.947,7.947,0,0,0,9.3,3,7.228,7.228,0,0,0,2,10.3c0,5.016,4.512,9.1,11.346,15.314L15.27,27.35,17.194,25.6C24.028,19.4,28.54,15.315,28.54,10.3A7.228,7.228,0,0,0,21.242,3ZM15.4,23.635l-.133.133-.133-.133C8.821,17.916,4.654,14.134,4.654,10.3A4.535,4.535,0,0,1,9.3,5.654a5.188,5.188,0,0,1,4.737,3.132h2.481a5.155,5.155,0,0,1,4.724-3.132A4.535,4.535,0,0,1,25.886,10.3C25.886,14.134,21.719,17.916,15.4,23.635Z" transform="translate(-2 -3)" fill="#e23734"/>
</svg>
