<svg xmlns="http://www.w3.org/2000/svg" width="29.695" height="26.419" viewBox="0 0 29.695 26.419">
  <path id="heart" d="M27.34,2.585A7.985,7.985,0,0,0,21.4,0a7.47,7.47,0,0,0-4.666,1.611,9.546,9.546,0,0,0-1.886,1.97,9.541,9.541,0,0,0-1.887-1.97A7.469,7.469,0,0,0,8.3,0a7.985,7.985,0,0,0-5.94,2.585A9.282,9.282,0,0,0,0,8.924a11.053,11.053,0,0,0,2.945,7.235,62.8,62.8,0,0,0,7.373,6.92c1.022.871,2.179,1.858,3.382,2.909a1.743,1.743,0,0,0,2.3,0c1.2-1.051,2.361-2.039,3.383-2.91a62.768,62.768,0,0,0,7.372-6.919A11.051,11.051,0,0,0,29.7,8.924,9.281,9.281,0,0,0,27.34,2.585Zm0,0" transform="translate(0)" fill="#e23734"/>
</svg>
