<svg xmlns="http://www.w3.org/2000/svg" width="24" height="24" viewBox="0 0 24 24">
  <g id="Group_36" data-name="Group 36" transform="translate(0.146 0.171)">
    <rect id="Rectangle_27" data-name="Rectangle 27" width="24" height="24" transform="translate(-0.146 -0.171)" fill="none"/>
    <path id="ic_favorite_border_24px" d="M14.643,3a5.221,5.221,0,0,0-3.924,1.822A5.221,5.221,0,0,0,6.8,3,4.749,4.749,0,0,0,2,7.8c0,3.3,2.965,5.981,7.455,10.062L10.719,19l1.264-1.151c4.49-4.072,7.455-6.757,7.455-10.053A4.749,4.749,0,0,0,14.643,3ZM10.807,16.559l-.087.087-.087-.087C6.482,12.8,3.744,10.316,3.744,7.8A2.98,2.98,0,0,1,6.8,4.744,3.409,3.409,0,0,1,9.908,6.8h1.631a3.387,3.387,0,0,1,3.1-2.058A2.98,2.98,0,0,1,17.695,7.8C17.695,10.316,14.957,12.8,10.807,16.559Z" transform="translate(0.854 0.829)" fill="#e23734"/>
  </g>
</svg>
