<svg xmlns="http://www.w3.org/2000/svg" width="21.26" height="19.506" viewBox="0 0 21.26 19.506">
  <path id="ic_favorite_border_24px" d="M17.414,3A6.366,6.366,0,0,0,12.63,5.222,6.366,6.366,0,0,0,7.847,3,5.79,5.79,0,0,0,2,8.847c0,4.018,3.614,7.292,9.089,12.267l1.541,1.393,1.541-1.4c5.475-4.964,9.089-8.238,9.089-12.256A5.79,5.79,0,0,0,17.414,3ZM12.736,19.53l-.106.106-.106-.106c-5.06-4.582-8.4-7.611-8.4-10.683A3.633,3.633,0,0,1,7.847,5.126a4.156,4.156,0,0,1,3.795,2.509h1.988a4.129,4.129,0,0,1,3.784-2.509,3.633,3.633,0,0,1,3.721,3.721C21.134,11.919,17.8,14.948,12.736,19.53Z" transform="translate(-2 -3)" fill="#ae0028"/>
</svg>
