<svg xmlns="http://www.w3.org/2000/svg" width="12" height="12" viewBox="0 0 12 12">
  <path id="ic_favorite_red" d="M10.7,3A3.48,3.48,0,0,0,8,4.367,3.48,3.48,0,0,0,5.3,3,3.424,3.424,0,0,0,2,6.6c0,2.472,2.04,4.486,5.13,7.547L8,15l.87-.863C11.96,11.083,14,9.069,14,6.6A3.424,3.424,0,0,0,10.7,3ZM8.06,13.169,8,13.234l-.06-.065C5.084,10.35,3.2,8.487,3.2,6.6A2.149,2.149,0,0,1,5.3,4.308,2.352,2.352,0,0,1,7.442,5.851H8.564A2.337,2.337,0,0,1,10.7,4.308,2.149,2.149,0,0,1,12.8,6.6C12.8,8.487,10.916,10.35,8.06,13.169Z" transform="translate(-2 -3)" fill="#ae0028"/>
</svg>
