<svg xmlns="http://www.w3.org/2000/svg" width="15.631" height="14.22" viewBox="0 0 15.631 14.22">
  <path id="Path_2622" data-name="Path 2622" d="M16.068,22.116V12.662L9.815,8.417,3.563,12.662v2.78a.908.908,0,0,1,.845.57,11.342,11.342,0,0,1,.978,3.238,1.96,1.96,0,0,1-1.563,2.062v-.528A1.462,1.462,0,0,0,4.866,19.25a12.569,12.569,0,0,0-.941-3.043.39.39,0,0,0-.724,0,12.578,12.578,0,0,0-.94,3.043A1.462,1.462,0,0,0,3.3,20.784v1.331H2v.521H17.631v-.521Zm-3.647-3.387.521-.782.521.782v.782H14.5v-.782l.521-.782.521.782v3.387H14.5V20.553H13.463v1.563H12.421V20.553H11.379v1.563H10.336V18.729l.521-.782.521.782v.782h1.042Zm-2.345-5.21h1.3v.521a.781.781,0,0,1-.782.782h-.521ZM10.6,11.7a.781.781,0,0,1,.782.782V13h-1.3V11.7Zm-2.345.782a.781.781,0,0,1,.782-.782h.521V13h-1.3Zm0,1.042h1.3v1.3H9.034a.781.781,0,0,1-.782-.782Zm.521,3.647v4.95H5.908v-4.95Z" transform="translate(-2 -8.417)" fill="#292929"/>
</svg>
