<svg xmlns="http://www.w3.org/2000/svg" width="30" height="30" viewBox="0 0 30 30">
  <g id="Group_3" data-name="Group 3" transform="translate(-203 -46)">
    <path id="ic_g_translate_24px" d="M27.2,6.2H14.432L13.2,2H4.8A2.808,2.808,0,0,0,2,4.8V23a2.808,2.808,0,0,0,2.8,2.8h9.8L16,30H27.2A2.808,2.808,0,0,0,30,27.2V9A2.808,2.808,0,0,0,27.2,6.2ZM9.238,19.626a5.726,5.726,0,1,1,0-11.452,5.529,5.529,0,0,1,3.836,1.5l.1.084L11.45,11.408l-.084-.07a3.041,3.041,0,0,0-2.128-.826,3.388,3.388,0,0,0,0,6.776,2.869,2.869,0,0,0,2.968-2.044H9.112v-2.17h5.53l.014.1a4.4,4.4,0,0,1,.07.854A5.307,5.307,0,0,1,9.238,19.626Zm8.442-2.394a13.974,13.974,0,0,0,1.666,2.38l-.756.742Zm1.078-1.064H17.372l-.434-1.456h5.586a10.753,10.753,0,0,1-2.184,3.836,12.854,12.854,0,0,1-1.582-2.38ZM28.6,27.2a1.4,1.4,0,0,1-1.4,1.4H17.4l2.8-2.8-1.134-3.878,1.288-1.288L24.106,24.4l1.022-1.022-3.794-3.752a12.223,12.223,0,0,0,2.688-4.914H25.8V13.256H20.7V11.8H19.248v1.456H16.5L14.852,7.6H27.2A1.4,1.4,0,0,1,28.6,9Z" transform="translate(202 45)" fill="#fff"/>
    <rect id="Rectangle_11" data-name="Rectangle 11" width="30" height="30" transform="translate(203 46)" fill="none"/>
  </g>
</svg>
