<svg xmlns="http://www.w3.org/2000/svg" xmlns:xlink="http://www.w3.org/1999/xlink" width="408.913" height="75.854" viewBox="0 0 408.913 75.854">
  <defs>
    <linearGradient id="linear-gradient" x1="0.508" y1="0.15" x2="0.489" y2="0.938" gradientUnits="objectBoundingBox">
      <stop offset="0" stop-color="#ae0028"/>
      <stop offset="0.343" stop-color="#e23734"/>
      <stop offset="0.698" stop-color="#f28140"/>
      <stop offset="1" stop-color="#faa451"/>
    </linearGradient>
    <linearGradient id="linear-gradient-2" x1="3.817" y1="0.453" x2="11.188" y2="0.339" gradientUnits="objectBoundingBox">
      <stop offset="0" stop-color="#340007"/>
      <stop offset="1" stop-color="#faa451"/>
    </linearGradient>
    <linearGradient id="linear-gradient-3" x1="6.312" y1="0.463" x2="23.22" y2="0.35" xlink:href="#linear-gradient-2"/>
    <linearGradient id="linear-gradient-4" x1="1.475" y1="0.474" x2="6.389" y2="0.361" xlink:href="#linear-gradient-2"/>
    <linearGradient id="linear-gradient-5" x1="1.249" y1="0.488" x2="10.746" y2="0.316" xlink:href="#linear-gradient-2"/>
    <linearGradient id="linear-gradient-6" x1="0.547" y1="0.501" x2="15.907" y2="0.373" xlink:href="#linear-gradient-2"/>
    <linearGradient id="linear-gradient-7" x1="-0.34" y1="0.517" x2="9.157" y2="0.345" xlink:href="#linear-gradient-2"/>
    <linearGradient id="linear-gradient-8" x1="-1.165" y1="0.541" x2="6.738" y2="0.365" xlink:href="#linear-gradient-2"/>
    <linearGradient id="linear-gradient-9" x1="-4.787" y1="0.537" x2="12.12" y2="0.424" xlink:href="#linear-gradient-2"/>
    <linearGradient id="linear-gradient-10" x1="-3.266" y1="0.57" x2="6.23" y2="0.398" xlink:href="#linear-gradient-2"/>
    <linearGradient id="linear-gradient-11" x1="11.413" y1="0.536" x2="21.256" y2="0.568" xlink:href="#linear-gradient-2"/>
    <linearGradient id="linear-gradient-12" x1="11.501" y1="0.541" x2="22.567" y2="0.582" xlink:href="#linear-gradient-2"/>
    <linearGradient id="linear-gradient-13" x1="7.098" y1="0.537" x2="14.717" y2="0.58" xlink:href="#linear-gradient-2"/>
    <linearGradient id="linear-gradient-14" x1="9.094" y1="0.531" x2="20.707" y2="0.572" xlink:href="#linear-gradient-2"/>
    <linearGradient id="linear-gradient-15" x1="7.082" y1="0.519" x2="18.225" y2="0.552" xlink:href="#linear-gradient-2"/>
    <linearGradient id="linear-gradient-16" x1="20.981" y1="0.516" x2="60.513" y2="0.547" xlink:href="#linear-gradient-2"/>
    <linearGradient id="linear-gradient-17" x1="5.667" y1="0.518" x2="17.279" y2="0.56" xlink:href="#linear-gradient-2"/>
    <linearGradient id="linear-gradient-18" x1="4.613" y1="0.514" x2="16.497" y2="0.556" xlink:href="#linear-gradient-2"/>
    <linearGradient id="linear-gradient-19" x1="5.157" y1="0.509" x2="22.612" y2="0.542" xlink:href="#linear-gradient-2"/>
    <linearGradient id="linear-gradient-20" x1="4.078" y1="0.508" x2="22.326" y2="0.551" xlink:href="#linear-gradient-2"/>
    <linearGradient id="linear-gradient-21" x1="1.778" y1="0.505" x2="12.844" y2="0.546" xlink:href="#linear-gradient-2"/>
    <linearGradient id="linear-gradient-22" x1="0.644" y1="0.501" x2="12.8" y2="0.543" xlink:href="#linear-gradient-2"/>
    <linearGradient id="linear-gradient-23" x1="-2.041" y1="0.498" x2="37.491" y2="0.529" xlink:href="#linear-gradient-2"/>
    <linearGradient id="linear-gradient-24" x1="-1.125" y1="0.494" x2="10.759" y2="0.536" xlink:href="#linear-gradient-2"/>
    <linearGradient id="linear-gradient-25" x1="-2.346" y1="0.491" x2="10.067" y2="0.532" xlink:href="#linear-gradient-2"/>
  </defs>
  <g id="Group_6" data-name="Group 6" transform="translate(-79.008 -971.18)">
    <path id="Path_1" data-name="Path 1" d="M147.807,1026.861l-8.8-15.2-1.9-3.282a.047.047,0,0,1-.018-.037h-.009l-1.309-2.263a14.292,14.292,0,0,1-.209-11.391c.027-.064.055-.136.082-.2l3.5-8.336,6.282-14.973H134.571l-2.463,5.873-2.873,6.845-1.664,3.964-.482,1.154-3.945-4.736-6.664-7.991-3.118-3.736-1.145-1.373-1.8,2.155L97.335,989.016l-1.027-2.454L89.854,971.18H79.008l9.709,23.136.218.537a14.237,14.237,0,0,1-.99,12.581,19.357,19.357,0,0,1,4.227-4.872,18.673,18.673,0,0,1,2.991-2.046,19.624,19.624,0,0,1,9.518-2.463c.372,0,.736.009,1.1.036a19.277,19.277,0,0,1,6.69,1.573,5.02,5.02,0,0,0,.546.245,12.334,12.334,0,0,0,16.618-7.845.327.327,0,0,0,.018-.091.632.632,0,0,1,.055.182,12.331,12.331,0,0,1-8.418,15.081,12.7,12.7,0,0,1-3.473.5,12.21,12.21,0,0,1-4.8-.972,5.024,5.024,0,0,1-.546-.246,19.484,19.484,0,0,0-7.79-1.609c-.228,0-.446,0-.664.018a19.49,19.49,0,0,0-9.636,2.9,19.647,19.647,0,0,0-4.509,3.837,19.437,19.437,0,0,0-4.518,9.463,18.5,18.5,0,0,0-.309,3.427,19.634,19.634,0,0,0,19.636,19.636c.272,0,.536-.009.8-.018a17.571,17.571,0,0,0,1.845-.163q.123.15.273.3c0,.018.018.036.054.054a2.691,2.691,0,0,0,.219.246c.063.063.136.127.209.19l.109.11a6.6,6.6,0,0,0,.554.454,7.993,7.993,0,0,0,1.682.982c.009,0,.009.009.018.009a8.04,8.04,0,0,0,3.237.682h3.509v-4.146H119.9a1.159,1.159,0,0,0,0-2.318H117.09v-3.654h2.836a1.156,1.156,0,0,0,1.127-1.155.837.837,0,0,0-.045-.3,1.141,1.141,0,0,0-1.109-.863H117.09v-3.846h-3.409a8.217,8.217,0,0,0-3.073.6.009.009,0,0,0-.009.009c-.046.018-.1.046-.155.073a6.027,6.027,0,0,0-1.018.536,1.1,1.1,0,0,0-.191.109c-.009.01-.027.019-.036.028a8.779,8.779,0,0,1-1.091.563H108.1l-.009.009a8.913,8.913,0,0,1-2.609.646,7.8,7.8,0,0,1-.8.036,8.809,8.809,0,1,1,2.936-17.118c.009.009.018.019.027.019h.009c.4.19.809.381,1.228.545.009.009.027.009.036.018a23.233,23.233,0,0,0,14.263,1.146c.382-.082.764-.182,1.137-.3a22.529,22.529,0,0,0,5.272-2.282l6.637,11.472,10.036,17.327h11.572Zm-39.172,10.073a4.441,4.441,0,0,1,1.809-1.918,3.723,3.723,0,0,1,.427-.218,4.459,4.459,0,0,1,1.782-.373h1.864v8.927h-1.864a4.235,4.235,0,0,1-1.482-.264,1.937,1.937,0,0,1-.3-.109,3.657,3.657,0,0,1-.427-.209,4.605,4.605,0,0,1-.945-.727,4.437,4.437,0,0,1-1.309-3.155A4.5,4.5,0,0,1,108.635,1036.934Z" fill="url(#linear-gradient)"/>
    <g id="Group_4" data-name="Group 4">
      <path id="Path_2" data-name="Path 2" d="M192.481,976.127h.757l15.482,37.194.035.085c.862,1.736,3.226,6.64,4.923,6.64.307.03.643.132.643.569a.6.6,0,0,1-.653.563H197.116c-.4,0-.841-.077-.841-.563,0-.406.286-.506.67-.575,2.68-.82,1.91-4.1.922-6.643l-.914-2.208H179.492l-1.051,2.789c-.83,2.174-2.018,6.068,1.181,6.068a.566.566,0,1,1,.015,1.132h-9.3c-.4,0-.625-.164-.625-.563,0-.347.194-.506.624-.575,3.32-.06,5.251-1.708,7.173-6.767l13.987-37.146Zm-12.565,33.935h16.57l-8.68-20.952Z" fill="url(#linear-gradient-2)"/>
      <path id="Path_3" data-name="Path 3" d="M231.925,976.211a.564.564,0,0,1,.268.509v36.611c0,4.388,1.03,6.289,3.915,6.715a.566.566,0,1,1,.014,1.132H217.857c-.4,0-.625-.164-.625-.563,0-.347.193-.506.624-.575,3.145-.4,3.873-2.287,3.873-6.709V990.079c0-4.653-.957-7.126-3.667-7.647-.307-.058-.64-.137-.64-.577a.574.574,0,0,1,.624-.566,23.327,23.327,0,0,0,13.2-5.009A.571.571,0,0,1,231.925,976.211Z" fill="url(#linear-gradient-3)"/>
      <path id="Path_4" data-name="Path 4" d="M258.538,976.127c.4,0,.842.077.842.563,0,.407-.287.507-.67.575-2.68.821-1.911,4.1-.923,6.644l10.061,24.286,5.449-14.467-4.056-9.743c-1.406-3.388-2.979-5.994-4.958-6.725-.307-.029-.643-.133-.643-.569a.6.6,0,0,1,.653-.564h16.552c.4,0,.842.077.842.563,0,.407-.287.507-.671.575-2.68.821-1.91,4.1-.922,6.644l10.061,24.286,9.365-24.868c.83-2.174,2.018-6.067-1.181-6.067a.567.567,0,0,1-.015-1.133h9.306c.4,0,.623.164.623.563,0,.347-.192.507-.623.575-3.32.061-5.251,1.71-7.172,6.768l-13.988,37.145h-1.747l-10.795-25.933-9.765,25.933h-1.746l-15.483-37.193c-1.329-3.191-2.975-5.991-4.958-6.725-.307-.029-.643-.133-.643-.569a.6.6,0,0,1,.653-.564Z" fill="url(#linear-gradient-4)"/>
      <path id="Path_5" data-name="Path 5" d="M325.088,1002.693l1.1,9.708c.771,4.846,2.333,6.174,3.588,6.41a8.682,8.682,0,0,0,1.2-.039.563.563,0,0,1,.259,1.054,12.87,12.87,0,0,1-7.149,1.868c-3,.009-6.065-.9-7.485-3.771,0,.058-2.965,3.72-9.476,3.72-5.115,0-10.23-1.917-10.23-7.5,0-9.511,10.739-7.428,15.377-9.541,1.933-.881,2.29-2.121,2-4.295-.332-2.51-1.642-7.064-5.453-7.064-2.387,0-3.22,1.367-3.242,2.705-.036,2.193,3.371,2.228,2.817,5.395-.658,3.759-7.407,4.354-8.6-.164-1.163-4.359,2.1-8.682,9.882-9.068C318.172,991.692,323.8,994.659,325.088,1002.693Zm-12.335,3.115c-2.387,1.458-5.976,2.855-5.976,7.291,0,7.5,9.824,7.382,9.184,2.15L314.7,1004.1A5.568,5.568,0,0,1,312.753,1005.808Z" fill="url(#linear-gradient-5)"/>
      <path id="Path_6" data-name="Path 6" d="M342.726,981.6a.538.538,0,0,1,.4.578V993.7h5.2a.563.563,0,1,1,0,1.126h-5.2v16.295c0,4.226,1.08,5.816,2.432,5.795,1.307-.051,2.607-1.459,3.127-2.733a.563.563,0,1,1,1.026.466c-1.617,3.526-4.984,6.993-9.259,6.993-5.058,0-7.789-2.79-7.789-10.521l.014-11.55c.032-4.879-.108-4.843-3.682-4.843-.307-.058-.64-.136-.64-.576,0-.343.268-.492.624-.566,3.815-.791,11.576-6.585,13.128-11.6A.575.575,0,0,1,342.726,981.6Z" fill="url(#linear-gradient-6)"/>
      <path id="Path_7" data-name="Path 7" d="M380.123,1002.693l1.105,9.708c.771,4.846,2.332,6.174,3.587,6.41a8.672,8.672,0,0,0,1.2-.039.563.563,0,0,1,.26,1.054,12.875,12.875,0,0,1-7.149,1.868c-3,.009-6.066-.9-7.486-3.771,0,.058-2.965,3.72-9.475,3.72-5.116,0-10.231-1.917-10.231-7.5,0-9.511,10.739-7.428,15.377-9.541,1.933-.881,2.291-2.121,2-4.295-.331-2.51-1.642-7.064-5.454-7.064-2.386,0-3.22,1.367-3.242,2.705-.036,2.193,3.372,2.228,2.817,5.395-.657,3.759-7.407,4.354-8.6-.164-1.164-4.359,2.1-8.682,9.882-9.068C373.208,991.692,378.832,994.659,380.123,1002.693Zm-12.335,3.115c-2.387,1.458-5.976,2.855-5.976,7.291,0,7.5,9.824,7.382,9.185,2.15l-1.264-11.146A5.562,5.562,0,0,1,367.788,1005.808Z" fill="url(#linear-gradient-7)"/>
      <path id="Path_8" data-name="Path 8" d="M403.338,992.107a.565.565,0,0,1,.268.509v2.81a9.358,9.358,0,0,1,7.441-3.255c8.953,0,11.742,5.29,12.556,10.522l1.265,10.638c.536,4.365,1.792,6.269,4.7,6.708.331.048.668.2.689.576a.57.57,0,0,1-.623.563H411.484c-.341,0-.679-.116-.679-.563,0-.368.3-.552.657-.589,3-.431,3.443-2.319,2.942-6.7l-1.206-11.684c-.465-3.721-1.919-7.95-5.7-7.428-3.43.466-3.9,4.114-3.9,10.625v8.487c0,4.388,1.03,6.289,3.916,6.715a.566.566,0,1,1,.014,1.132H389.27c-.4,0-.624-.164-.624-.563,0-.347.193-.506.624-.575,3.144-.4,3.873-2.287,3.873-6.709v-7.267c-.005-4.546-.389-6.857-3.668-7.736-.307-.057-.641-.136-.641-.576a.575.575,0,0,1,.625-.566,23.316,23.316,0,0,0,13.2-5.01.6.6,0,0,1,.416-.149A.577.577,0,0,1,403.338,992.107Z" fill="url(#linear-gradient-8)"/>
      <path id="Path_9" data-name="Path 9" d="M448.13,992.706v20.625c0,4.388,1.031,6.289,3.916,6.715a.566.566,0,1,1,.015,1.132H433.8c-.4,0-.625-.164-.625-.563,0-.347.194-.506.624-.575,3.145-.4,3.874-2.287,3.874-6.709v-7.267c0-4.653-.957-7.125-3.668-7.647-.307-.057-.64-.136-.64-.576a.574.574,0,0,1,.624-.565,23.32,23.32,0,0,0,13.2-5.01A.563.563,0,0,1,448.13,992.706Zm0-10.476a6.1,6.1,0,0,1-6.1,6.105,6.3,6.3,0,0,1-6.1-6.105,6.1,6.1,0,0,1,12.206,0Z" fill="url(#linear-gradient-9)"/>
      <path id="Path_10" data-name="Path 10" d="M481.485,1002.693l1.1,9.708c.771,4.846,2.333,6.174,3.588,6.41a8.677,8.677,0,0,0,1.2-.039.563.563,0,0,1,.26,1.054,12.878,12.878,0,0,1-7.15,1.868c-3,.009-6.065-.9-7.485-3.771,0,.058-2.965,3.72-9.475,3.72-5.116,0-10.231-1.917-10.231-7.5,0-9.511,10.739-7.428,15.377-9.541,1.933-.881,2.291-2.121,2-4.295-.332-2.51-1.642-7.064-5.454-7.064-2.386,0-3.22,1.367-3.242,2.705-.036,2.193,3.372,2.228,2.817,5.395-.657,3.759-7.407,4.354-8.6-.164-1.163-4.359,2.1-8.682,9.882-9.068C474.569,991.692,480.194,994.659,481.485,1002.693Zm-12.335,3.115c-2.387,1.458-5.976,2.855-5.976,7.291,0,7.5,9.824,7.382,9.185,2.15L471.1,1004.1A5.571,5.571,0,0,1,469.15,1005.808Z" fill="url(#linear-gradient-10)"/>
    </g>
    <g id="Group_5" data-name="Group 5">
      <path id="Path_11" data-name="Path 11" d="M260.023,1030.089h2.549v4.6h4.745v-4.6h2.55v11.793h-2.55v-5.1h-4.745v5.1h-2.549Z" fill="url(#linear-gradient-11)"/>
      <path id="Path_12" data-name="Path 12" d="M280.425,1037.438c0,2.678-1.6,4.649-4.407,4.649-2.746,0-4.349-1.959-4.349-4.6,0-2.733,1.652-4.663,4.464-4.663C278.739,1032.823,280.425,1034.662,280.425,1037.438Zm-6.269.017c0,1.7.734,2.714,1.914,2.714,1.2,0,1.868-1.011,1.868-2.7,0-1.853-.68-2.729-1.9-2.729C274.9,1034.741,274.156,1035.583,274.156,1037.455Z" fill="url(#linear-gradient-12)"/>
      <path id="Path_13" data-name="Path 13" d="M282.109,1035.31c0-.766,0-1.525-.018-2.281h2.345c.032.214.081.709.093,1.055a2.765,2.765,0,0,1,2.461-1.261,2.34,2.34,0,0,1,2.285,1.347,3.069,3.069,0,0,1,2.727-1.347c1.543,0,2.807.949,2.807,3.25v5.809h-2.392v-5.51c0-.8-.29-1.582-1.293-1.582-1.042,0-1.448.672-1.448,2.031v5.061h-2.4v-5.418c0-.917-.226-1.658-1.273-1.658-1,0-1.47.612-1.47,2.131v4.945h-2.42Z" fill="url(#linear-gradient-13)"/>
      <path id="Path_14" data-name="Path 14" d="M298.956,1037.98c0,1.107.557,2.189,1.777,2.189a1.4,1.4,0,0,0,1.544-.945h2.454a3.878,3.878,0,0,1-4.062,2.863c-2.917,0-4.182-2.181-4.182-4.5,0-2.777,1.425-4.761,4.269-4.761,3.041,0,4.075,2.2,4.075,4.41a5.488,5.488,0,0,1-.032.747Zm3.419-1.506c-.016-1.031-.429-1.9-1.623-1.9-1.175,0-1.647.811-1.745,1.9Z" fill="url(#linear-gradient-14)"/>
      <path id="Path_15" data-name="Path 15" d="M318.9,1036.8h-5.639v3h6.221l-.3,2.09h-8.394v-11.793h8.363v2.09h-5.888v2.527H318.9Z" fill="url(#linear-gradient-15)"/>
      <path id="Path_16" data-name="Path 16" d="M320.953,1041.882V1029.4H323.4v12.486Z" fill="url(#linear-gradient-16)"/>
      <path id="Path_17" data-name="Path 17" d="M327.556,1037.98c0,1.107.556,2.189,1.776,2.189a1.4,1.4,0,0,0,1.545-.945h2.453a3.876,3.876,0,0,1-4.061,2.863c-2.917,0-4.182-2.181-4.182-4.5,0-2.777,1.425-4.761,4.269-4.761,3.041,0,4.075,2.2,4.075,4.41a5.483,5.483,0,0,1-.032.747Zm3.419-1.506c-.017-1.031-.429-1.9-1.623-1.9-1.175,0-1.648.811-1.745,1.9Z" fill="url(#linear-gradient-17)"/>
      <path id="Path_18" data-name="Path 18" d="M342.917,1039.022a3.686,3.686,0,0,1-3.981,3.065c-2.755,0-4.172-1.907-4.172-4.567,0-2.615,1.6-4.7,4.29-4.7,2.985,0,3.814,2.142,3.863,3.143h-2.393a1.385,1.385,0,0,0-1.518-1.225c-1.12,0-1.755.983-1.755,2.7,0,1.885.672,2.744,1.745,2.744a1.506,1.506,0,0,0,1.513-1.162Z" fill="url(#linear-gradient-18)"/>
      <path id="Path_19" data-name="Path 19" d="M343.747,1033.029h1.365v-2.4h2.452v2.4H349.3v1.842h-1.734v4.369c0,.672.205.934.935.934a4.579,4.579,0,0,0,.559-.027v1.686a5.616,5.616,0,0,1-1.648.169c-1.727,0-2.3-.924-2.3-2.473v-4.658h-1.365Z" fill="url(#linear-gradient-19)"/>
      <path id="Path_20" data-name="Path 20" d="M350.732,1035.43c0-.88,0-1.661-.018-2.4h2.4c.033.2.065,1.077.065,1.553a2.836,2.836,0,0,1,2.841-1.759v2.339c-1.78-.046-2.841.433-2.841,2.86v3.86h-2.451Z" fill="url(#linear-gradient-20)"/>
      <path id="Path_21" data-name="Path 21" d="M365.555,1037.438c0,2.678-1.6,4.649-4.407,4.649-2.747,0-4.349-1.959-4.349-4.6,0-2.733,1.652-4.663,4.464-4.663C363.869,1032.823,365.555,1034.662,365.555,1037.438Zm-6.269.017c0,1.7.734,2.714,1.914,2.714,1.2,0,1.867-1.011,1.867-2.7,0-1.853-.679-2.729-1.9-2.729C360.029,1034.741,359.286,1035.583,359.286,1037.455Z" fill="url(#linear-gradient-21)"/>
      <path id="Path_22" data-name="Path 22" d="M367.252,1035.259c0-.753,0-1.576-.017-2.23h2.374a10.482,10.482,0,0,1,.1,1.127,2.7,2.7,0,0,1,2.569-1.333c1.778,0,2.933,1.2,2.933,3.426v5.633h-2.451v-5.36c0-.995-.332-1.716-1.414-1.716-1.041,0-1.637.579-1.637,2.142v4.934h-2.452Z" fill="url(#linear-gradient-22)"/>
      <path id="Path_23" data-name="Path 23" d="M377.381,1029.4h2.451v2.186h-2.451Zm0,3.633h2.451v8.853h-2.451Z" fill="url(#linear-gradient-23)"/>
      <path id="Path_24" data-name="Path 24" d="M389.7,1039.022a3.684,3.684,0,0,1-3.981,3.065c-2.755,0-4.172-1.907-4.172-4.567,0-2.615,1.6-4.7,4.29-4.7,2.985,0,3.815,2.142,3.863,3.143H387.3a1.385,1.385,0,0,0-1.518-1.225c-1.12,0-1.755.983-1.755,2.7,0,1.885.672,2.744,1.745,2.744a1.506,1.506,0,0,0,1.513-1.162Z" fill="url(#linear-gradient-24)"/>
      <path id="Path_25" data-name="Path 25" d="M393.093,1039.22a1.532,1.532,0,0,0,1.676,1.1c.9,0,1.235-.324,1.235-.861,0-.568-.381-.791-1.648-1.1-2.885-.711-3.357-1.6-3.357-2.853,0-1.3.919-2.682,3.59-2.682,2.686,0,3.6,1.466,3.671,2.665h-2.331c-.078-.326-.3-.945-1.449-.945-.811,0-1.073.36-1.073.758,0,.44.275.653,1.712.988,2.954.687,3.372,1.7,3.372,3,0,1.467-1.115,2.8-3.814,2.8s-3.8-1.3-3.992-2.867Z" fill="url(#linear-gradient-25)"/>
    </g>
  </g>
</svg>
