<svg xmlns="http://www.w3.org/2000/svg" width="20" height="20" viewBox="0 0 20 20">
  <g id="Group_356" data-name="Group 356" transform="translate(-461 -719)">
    <rect id="Rectangle_72" data-name="Rectangle 72" width="20" height="20" rx="10" transform="translate(461 719)" fill="#df4c4c"/>
    <g id="Group_357" data-name="Group 357" transform="translate(-1.426)">
      <path id="Path_515" data-name="Path 515" d="M-17.194-18.869a1.38,1.38,0,0,1-.176.677l-4.551,8.128a1.52,1.52,0,0,1-.581.594,1.584,1.584,0,0,1-.806.215,1.532,1.532,0,0,1-.556-.1,1.611,1.611,0,0,1-.484-.294s-.492-.241-.492-.673a2.361,2.361,0,0,1,.492-1.056,7.141,7.141,0,0,1,.726-1.314l3.835-6.851a1.32,1.32,0,0,1,.506-.517,1.376,1.376,0,0,1,.7-.187,1.367,1.367,0,0,1,.539.107,1.407,1.407,0,0,1,.443.294,1.352,1.352,0,0,1,.3.44A1.367,1.367,0,0,1-17.194-18.869Z" transform="translate(493.266 744.25)" fill="#fff"/>
      <path id="Path_516" data-name="Path 516" d="M-24.839-18.869a1.38,1.38,0,0,0,.176.677l4.551,8.128a1.52,1.52,0,0,0,.581.594,1.584,1.584,0,0,0,.806.215,1.532,1.532,0,0,0,.556-.1,1.611,1.611,0,0,0,.484-.294s.492-.241.492-.673a2.361,2.361,0,0,0-.492-1.056,7.141,7.141,0,0,0-.726-1.314l-3.835-6.851a1.32,1.32,0,0,0-.506-.517,1.376,1.376,0,0,0-.7-.187,1.367,1.367,0,0,0-.539.107,1.407,1.407,0,0,0-.443.294,1.352,1.352,0,0,0-.3.44A1.367,1.367,0,0,0-24.839-18.869Z" transform="translate(493.266 744.25)" fill="#fff"/>
    </g>
  </g>
</svg>
