<svg xmlns="http://www.w3.org/2000/svg" xmlns:xlink="http://www.w3.org/1999/xlink" width="78.828" height="75.856" viewBox="0 0 78.828 75.856">
    <defs>
        <linearGradient id="linear-gradient" x1="0.508" y1="0.15" x2="0.489" y2="0.938" gradientUnits="objectBoundingBox">
            <stop offset="0" stop-color="#ae0028"/>
            <stop offset="0.343" stop-color="#e23734"/>
            <stop offset="0.698" stop-color="#f28140"/>
            <stop offset="1" stop-color="#faa451"/>
        </linearGradient>
    </defs>
    <path id="Path_1" data-name="Path 1" d="M147.807,1026.86l-8.8-15.2-1.9-3.282a.047.047,0,0,1-.018-.037h-.009l-1.309-2.263a14.292,14.292,0,0,1-.209-11.391c.027-.064.055-.136.082-.2l3.5-8.336,6.282-14.973H134.571l-2.463,5.873-2.873,6.845-1.664,3.964-.482,1.154-3.945-4.736-6.664-7.991-3.118-3.736-1.145-1.373-1.8,2.155L97.335,989.016l-1.027-2.454L89.854,971.18H79.008l9.709,23.136.218.537a14.237,14.237,0,0,1-.99,12.581,19.355,19.355,0,0,1,4.227-4.872,18.676,18.676,0,0,1,2.991-2.046,19.624,19.624,0,0,1,9.518-2.463c.372,0,.736.009,1.1.036a19.278,19.278,0,0,1,6.69,1.573,5.019,5.019,0,0,0,.546.245,12.334,12.334,0,0,0,16.618-7.845.327.327,0,0,0,.018-.091.632.632,0,0,1,.055.182,12.331,12.331,0,0,1-8.418,15.081,12.706,12.706,0,0,1-3.473.5,12.212,12.212,0,0,1-4.8-.972,5.021,5.021,0,0,1-.546-.246,19.483,19.483,0,0,0-7.79-1.609c-.228,0-.446,0-.664.018a19.63,19.63,0,0,0-18.663,16.2,18.5,18.5,0,0,0-.309,3.427,19.634,19.634,0,0,0,19.638,19.636c.27,0,.534-.009.8-.018a17.585,17.585,0,0,0,1.845-.163q.123.15.273.3c0,.018.018.036.054.054a2.678,2.678,0,0,0,.219.246c.063.063.136.127.209.19l.109.11a6.607,6.607,0,0,0,.554.454,7.994,7.994,0,0,0,1.682.982c.009,0,.009.009.018.009a8.04,8.04,0,0,0,3.237.682h3.509v-4.146h2.71a1.159,1.159,0,1,0,0-2.318h-2.81v-3.654h2.836a1.156,1.156,0,0,0,1.127-1.155.837.837,0,0,0-.045-.3,1.141,1.141,0,0,0-1.109-.863H117.09v-3.846h-3.409a8.219,8.219,0,0,0-3.073.6.009.009,0,0,0-.009.009c-.046.018-.1.046-.155.073a6.026,6.026,0,0,0-1.018.536,1.1,1.1,0,0,0-.191.109c-.009.01-.027.019-.036.028a8.764,8.764,0,0,1-1.091.563H108.1l-.009.009a8.912,8.912,0,0,1-2.609.646,7.78,7.78,0,0,1-.8.036,8.809,8.809,0,1,1,2.936-17.118c.009.009.018.019.027.019h.009c.4.19.809.381,1.228.545.009.009.027.009.036.018a23.234,23.234,0,0,0,14.263,1.146c.382-.082.764-.182,1.137-.3a22.529,22.529,0,0,0,5.272-2.282l6.637,11.472,10.036,17.327h11.572Zm-39.172,10.073a4.441,4.441,0,0,1,1.809-1.918,3.731,3.731,0,0,1,.427-.218,4.461,4.461,0,0,1,1.782-.373h1.864v8.927h-1.864a4.235,4.235,0,0,1-1.482-.264,1.94,1.94,0,0,1-.3-.109,3.65,3.65,0,0,1-.427-.209,4.6,4.6,0,0,1-.945-.727,4.437,4.437,0,0,1-1.309-3.155,4.5,4.5,0,0,1,.445-1.957Z" transform="translate(-79.008 -971.178)" fill="url(#linear-gradient)"/>
</svg>
